<svg xmlns="http://www.w3.org/2000/svg" width="29.364" height="28.63" viewBox="0 0 29.364 28.63"><defs><style>.a{fill:#f2f2f2;}.b{fill:#871178;}</style></defs><g transform="translate(-0.356 0.314)"><ellipse class="a" cx="14.682" cy="14.315" rx="14.682" ry="14.315" transform="translate(0.356 -0.314)"/><g transform="translate(7.356 6.686)"><path class="b" d="M18.434,15.817A2.617,2.617,0,1,1,15.817,13.2,2.617,2.617,0,0,1,18.434,15.817Z" transform="translate(-7.638 -7.638)"/><path class="b" d="M8.725,3l-1.5,1.636H4.636A1.641,1.641,0,0,0,3,6.271v9.814a1.641,1.641,0,0,0,1.636,1.636H17.722a1.641,1.641,0,0,0,1.636-1.636V6.271a1.641,1.641,0,0,0-1.636-1.636H15.129L13.632,3Zm2.454,12.268a4.089,4.089,0,1,1,4.089-4.089A4.091,4.091,0,0,1,11.179,15.268Z" transform="translate(-3 -3)"/></g></g></svg>