<svg xmlns="http://www.w3.org/2000/svg" width="14.774" height="19.396" viewBox="0 0 14.774 19.396"><defs><style>.a{fill:#707070;}</style></defs><g transform="translate(-61)"><path class="a" d="M75.607,4.712,71.062.166A.569.569,0,0,0,70.66,0H62.7A1.707,1.707,0,0,0,61,1.7V17.691a1.707,1.707,0,0,0,1.7,1.7H74.069a1.707,1.707,0,0,0,1.7-1.7V5.114A.573.573,0,0,0,75.607,4.712ZM71.228,1.94l2.606,2.606H71.8a.569.569,0,0,1-.568-.568Zm2.841,16.319H62.7a.569.569,0,0,1-.568-.568V1.7a.569.569,0,0,1,.568-.568h7.387V3.978a1.707,1.707,0,0,0,1.7,1.7h2.841V17.691A.569.569,0,0,1,74.069,18.259Z"/><path class="a" d="M158.387,212h-6.819a.568.568,0,0,0,0,1.136h6.819a.568.568,0,1,0,0-1.136Z" transform="translate(-86.591 -203.969)"/><path class="a" d="M158.387,272h-6.819a.568.568,0,1,0,0,1.136h6.819a.568.568,0,1,0,0-1.136Z" transform="translate(-86.591 -261.696)"/><path class="a" d="M158.387,332h-6.819a.568.568,0,0,0,0,1.136h6.819a.568.568,0,1,0,0-1.136Z" transform="translate(-86.591 -319.423)"/><path class="a" d="M156.114,392h-4.546a.568.568,0,1,0,0,1.136h4.546a.568.568,0,1,0,0-1.136Z" transform="translate(-86.591 -377.15)"/></g></svg>