<svg xmlns="http://www.w3.org/2000/svg" width="7.908" height="5.437" viewBox="0 0 7.908 5.437"><defs><style>.a{fill:#871178;}</style></defs><g transform="translate(0 -80)"><g transform="translate(5.242 81.002)"><path class="a" d="M339.392,146.653l2.666,1.685V144.9Z" transform="translate(-339.392 -144.896)"/></g><g transform="translate(0 81.002)"><path class="a" d="M0,144.9v3.442l2.666-1.685Z" transform="translate(0 -144.896)"/></g><g transform="translate(0.015 80)"><g transform="translate(0 0)"><path class="a" d="M8.359,80H1.439a.488.488,0,0,0-.479.421l3.939,2.6,3.939-2.6A.488.488,0,0,0,8.359,80Z" transform="translate(-0.96 -80)"/></g></g><g transform="translate(0.016 83.057)"><path class="a" d="M5.8,277.921l-.7.461a.248.248,0,0,1-.272,0l-.7-.461-3.1,1.963a.487.487,0,0,0,.478.417H8.422a.487.487,0,0,0,.478-.417Z" transform="translate(-1.024 -277.92)"/></g></g></svg>