<svg xmlns="http://www.w3.org/2000/svg" width="19.437" height="19.396" viewBox="0 0 19.437 19.396"><defs><style>.a{fill:#707070;}</style></defs><g transform="translate(19.437) rotate(90)"><g transform="translate(0)"><path class="a" d="M11.174,10.8a.345.345,0,0,1,.242-.245.353.353,0,0,1,.091-.012.345.345,0,0,1,.242.1l2.2,2.167a.345.345,0,0,1-.151.578l-.308.085A4.312,4.312,0,0,0,16.7,15.005a.345.345,0,0,1,.338.345v1.37a.345.345,0,0,1-.1.245.377.377,0,0,1-.247.1,6.288,6.288,0,0,1-5.313-3.017l-.557.153a.345.345,0,0,1-.425-.419Z" transform="translate(-8.359 0.296)"/><path class="a" d="M19.107,19.437H9.934a.394.394,0,0,1-.394-.394V9.96H.5a.394.394,0,0,1-.394-.394V.394A.394.394,0,0,1,.5,0H15.022a.394.394,0,0,1,.394.394.4.4,0,0,1,0,.056V4.13h3.694a.394.394,0,0,1,.394.394V19.043A.394.394,0,0,1,19.107,19.437ZM1.866,1.761V8.2H13.651V1.761H1.866Zm13.152,8.2H11.3v7.716H17.74V5.891H15.412V9.567A.394.394,0,0,1,15.018,9.96Z" transform="translate(-0.105)"/></g></g></svg>