<svg xmlns="http://www.w3.org/2000/svg" width="16.579" height="16.614" viewBox="0 0 16.579 16.614">
  <path id="my-location" d="M8.289,5.677a3.017,3.017,0,0,1,3.022,3,2.89,2.89,0,0,1-.884,2.121,2.914,2.914,0,0,1-2.138.884A2.914,2.914,0,0,1,6.151,10.8a2.987,2.987,0,0,1,0-4.242A2.912,2.912,0,0,1,8.289,5.677ZM15.023,7.94h1.555V9.424H15.023A6.523,6.523,0,0,1,13.1,13.472a6.687,6.687,0,0,1-4.048,1.962v1.555H7.529V15.434A6.74,6.74,0,0,1,3.5,13.472,6.481,6.481,0,0,1,1.555,9.424H0V7.94H1.555A6.483,6.483,0,0,1,3.5,3.892,6.737,6.737,0,0,1,7.529,1.93V.375h1.52V1.93A6.692,6.692,0,0,1,13.1,3.892,6.518,6.518,0,0,1,15.023,7.94ZM8.307,13.949a5.078,5.078,0,0,0,3.729-1.537,5.08,5.08,0,0,0,1.538-3.73,5.074,5.074,0,0,0-1.537-3.729,5.083,5.083,0,0,0-3.73-1.538A5.132,5.132,0,0,0,4.56,4.952,5.051,5.051,0,0,0,3,8.682,5.049,5.049,0,0,0,4.56,12.411,5.136,5.136,0,0,0,8.307,13.949Z" transform="translate(0 -0.375)" fill="#9f9f9f"/>
</svg>
