<svg xmlns="http://www.w3.org/2000/svg" width="20.866" height="18.339" viewBox="0 0 20.866 18.339">
  <path id="portfolio" d="M20.259,2.445H14.712V1.834A1.836,1.836,0,0,0,12.879,0H7.988A1.836,1.836,0,0,0,6.154,1.834v.611H.612A.613.613,0,0,0,0,3.057V16.505a1.836,1.836,0,0,0,1.834,1.834h17.2a1.836,1.836,0,0,0,1.834-1.834V3.067a.593.593,0,0,0-.607-.622ZM7.377,1.834a.612.612,0,0,1,.611-.611h4.89a.612.612,0,0,1,.611.611v.611H7.377Zm12.03,1.834-1.9,5.7a.61.61,0,0,1-.58.418H13.49V9.17a.611.611,0,0,0-.611-.611H7.988a.611.611,0,0,0-.611.611v.611H3.938a.61.61,0,0,1-.58-.418l-1.9-5.7Zm-7.14,6.113V11H8.6V9.781Zm7.376,6.724a.612.612,0,0,1-.611.611H1.834a.612.612,0,0,1-.611-.611V6.824L2.2,9.75A1.831,1.831,0,0,0,3.938,11H7.377v.611a.611.611,0,0,0,.611.611h4.89a.611.611,0,0,0,.611-.611V11h3.439a1.831,1.831,0,0,0,1.74-1.254l.975-2.926Zm0,0" transform="translate(0)" fill="#22272a"/>
</svg>
