<svg xmlns="http://www.w3.org/2000/svg" width="23.008" height="18" viewBox="0 0 23.008 18">
  <g id="binoculars" transform="translate(0 -49.661)">
    <g id="Group_293" data-name="Group 293" transform="translate(0 49.661)">
      <g id="Group_292" data-name="Group 292" transform="translate(0 0)">
        <path id="Path_275" data-name="Path 275" d="M22.883,61.684a.5.5,0,0,0-.029-.131h0l-.013-.034a4.831,4.831,0,0,0-.309-.834L19.985,53.8a3.418,3.418,0,0,0-1.261-1.715l-.091-.644a.506.506,0,0,0-.021-.089,2.488,2.488,0,0,0-2.369-1.7,2.518,2.518,0,0,0-2.493,2.457v.022l.021,1a3.384,3.384,0,0,0-.439,1.288H9.676a3.387,3.387,0,0,0-.438-1.287l.021-.979v-.019a2.517,2.517,0,0,0-2.493-2.455,2.488,2.488,0,0,0-2.369,1.7.507.507,0,0,0-.021.087l-.091.623A3.419,3.419,0,0,0,3.025,53.8L.478,60.685a4.832,4.832,0,0,0-.309.834l-.013.034a.5.5,0,0,0-.029.131,4.875,4.875,0,1,0,9.623,1.1c0-.053,0-.106,0-.158a.553.553,0,0,0,0-.058L9.74,60.878h3.531l-.011,1.79c0,.008,0,.018,0,.027,0,.029,0,.059,0,.088a4.874,4.874,0,1,0,9.624-1.1ZM6.767,50.694a1.5,1.5,0,0,1,1.48,1.381,3.434,3.434,0,0,0-2.839-.51A1.484,1.484,0,0,1,6.767,50.694ZM3.974,54.145l.006-.019a2.42,2.42,0,0,1,4.312-.588.5.5,0,0,0,.031.048,2.367,2.367,0,0,1,.369,1.271L8.725,59.8a4.867,4.867,0,0,0-6.415-1.154ZM8.349,64.484A3.865,3.865,0,0,1,4.876,66.65h0a3.867,3.867,0,0,1-3.745-4.826l.274-.74a3.866,3.866,0,1,1,6.944,3.4Zm4.928-4.615H9.734l-.005-.756h3.553Zm.012-1.765H9.722l-.017-2.672h3.6Zm2.955-7.436a1.482,1.482,0,0,1,1.37.9,3.434,3.434,0,0,0-2.851.508A1.5,1.5,0,0,1,16.244,50.669Zm-1.926,4.185a2.418,2.418,0,0,1,3.639-2.062.508.508,0,0,0,.079.048,2.411,2.411,0,0,1,1,1.286l.006.019h0l1.665,4.5A4.867,4.867,0,0,0,14.286,59.8Zm4.774,11.675a3.867,3.867,0,0,1-.957.121h0a3.866,3.866,0,1,1,3.471-5.565l.274.74A3.867,3.867,0,0,1,19.091,66.529Z" transform="translate(0 -49.661)" fill="#22272a"/>
      </g>
    </g>
    <g id="Group_295" data-name="Group 295" transform="translate(1.422 59.33)">
      <g id="Group_294" data-name="Group 294" transform="translate(0 0)">
        <path id="Path_276" data-name="Path 276" d="M31.655,241.429a3.454,3.454,0,1,0,3.454,3.454A3.454,3.454,0,0,0,31.655,241.429Zm0,5.9a2.446,2.446,0,1,1,2.446-2.446A2.446,2.446,0,0,1,31.655,247.329Z" transform="translate(-28.201 -241.429)" fill="#22272a"/>
      </g>
    </g>
    <g id="Group_297" data-name="Group 297" transform="translate(14.619 59.33)">
      <g id="Group_296" data-name="Group 296" transform="translate(0 0)">
        <path id="Path_277" data-name="Path 277" d="M293.365,241.429a3.454,3.454,0,1,0,3.454,3.454A3.454,3.454,0,0,0,293.365,241.429Zm0,5.9a2.446,2.446,0,1,1,2.446-2.446A2.446,2.446,0,0,1,293.365,247.329Z" transform="translate(-289.911 -241.429)" fill="#22272a"/>
      </g>
    </g>
  </g>
</svg>
