<svg xmlns="http://www.w3.org/2000/svg" width="20.829" height="23.699" viewBox="0 0 20.829 23.699">
  <g id="share" transform="translate(-31)">
    <g id="Group_298" data-name="Group 298" transform="translate(31)">
      <path id="Path_278" data-name="Path 278" d="M47.663,15.367A4.158,4.158,0,0,0,44.522,16.8l-5.5-3.362a4.218,4.218,0,0,0,.013-3.143L44.524,6.9A4.151,4.151,0,1,0,43.8,5.718L38.315,9.107a4.118,4.118,0,0,0-3.15-1.47,4.212,4.212,0,0,0,0,8.424,4.117,4.117,0,0,0,3.126-1.442l5.5,3.364a4.166,4.166,0,1,0,3.867-2.616Zm0-13.979a2.777,2.777,0,1,1-2.37,4.223h0a2.776,2.776,0,0,1,2.372-4.221Zm-12.5,13.284a2.824,2.824,0,1,1,2.777-2.823A2.838,2.838,0,0,1,35.166,14.673Zm12.5,7.637a2.777,2.777,0,1,1,2.777-2.777A2.78,2.78,0,0,1,47.663,22.31Z" transform="translate(-31)" fill="#22272a"/>
    </g>
  </g>
</svg>
