<svg xmlns="http://www.w3.org/2000/svg" width="20.866" height="20.866" viewBox="0 0 20.866 20.866">
  <g id="wallet" transform="translate(-0.003 0)">
    <g id="Group_285" data-name="Group 285" transform="translate(0.003 0)">
      <g id="Group_284" data-name="Group 284" transform="translate(0 0)">
        <path id="Path_267" data-name="Path 267" d="M19.921,10.521V7.588a1.893,1.893,0,0,0-1.746-1.882L15.451.949A1.877,1.877,0,0,0,12.876.256L3.54,5.691H1.9A1.9,1.9,0,0,0,0,7.588V18.97a1.9,1.9,0,0,0,1.9,1.9H18.024a1.9,1.9,0,0,0,1.9-1.9V16.037a1.42,1.42,0,0,0,.948-1.335V11.856A1.42,1.42,0,0,0,19.921,10.521Zm-2.848-4.83H12.939l3.1-1.8Zm-1.5-2.628L11.054,5.691H9.182L15.1,2.246ZM13.354,1.075a.917.917,0,0,1,.7-.095.93.93,0,0,1,.57.44v0L7.3,5.691H5.425ZM18.972,18.97a.95.95,0,0,1-.948.948H1.9a.95.95,0,0,1-.948-.948V7.588A.95.95,0,0,1,1.9,6.64H18.024a.95.95,0,0,1,.948.948v2.845H16.127a2.845,2.845,0,0,0,0,5.691h2.845Zm.948-4.268a.475.475,0,0,1-.474.474h-3.32a1.9,1.9,0,0,1,0-3.794h3.32a.475.475,0,0,1,.474.474Z" transform="translate(-0.003 0)" fill="#22272a"/>
        <path id="Path_268" data-name="Path 268" d="M342.285,277.341a.948.948,0,1,0,.948.948A.95.95,0,0,0,342.285,277.341Z" transform="translate(-326.162 -265.011)" fill="#22272a"/>
      </g>
    </g>
  </g>
</svg>
