<svg xmlns="http://www.w3.org/2000/svg" xmlns:xlink="http://www.w3.org/1999/xlink" width="180" height="180" viewBox="0 0 180 180"><defs><style>.a{fill:url(#a);}.b,.d{fill:none;}.b{stroke:#fff;}.c{fill:#fff;}.e{fill:#f8f8f8;}.f{fill:#871178;}.g{stroke:none;}</style><linearGradient id="a" x1="0.5" y1="-2.673" x2="0.5" y2="1.959" gradientUnits="objectBoundingBox"><stop offset="0" stop-color="#871178"/><stop offset="1" stop-color="#3c1378"/></linearGradient></defs><g transform="translate(0)"><ellipse class="a" cx="89.854" cy="88.622" rx="89.854" ry="88.622" transform="translate(0.293)"/><g transform="translate(0 3.546)"><g transform="translate(0 0)"><g class="b"><ellipse class="g" cx="89.854" cy="87.578" rx="89.854" ry="87.578"/><ellipse class="d" cx="89.854" cy="87.578" rx="89.354" ry="87.078"/></g></g><path class="c" d="M147.358,155.086h0A23.827,23.827,0,0,0,142.645,152l-28.71-14.011a10.827,10.827,0,0,1-4.417-3.939,10.5,10.5,0,0,1-1.635-5.62v-11a42.594,42.594,0,0,0,2.716-3.409,63.869,63.869,0,0,0,8.924-17.557,8.783,8.783,0,0,0,6.4-8.375V76.356a8.716,8.716,0,0,0-3-6.5V52.884a21.563,21.563,0,0,0-.213-5.675,22.308,22.308,0,0,0-5.328-11.371c-5.576-6.209-14.835-9.358-27.519-9.358s-21.943,3.148-27.519,9.358a22.307,22.307,0,0,0-5.328,11.371,21.638,21.638,0,0,0-.213,5.676V69.852a8.726,8.726,0,0,0-3.005,6.5V88.094a8.738,8.738,0,0,0,4.158,7.385,56.405,56.405,0,0,0,6.561,15.765,50.633,50.633,0,0,0,4.31,6.19v10.724a10.651,10.651,0,0,1-5.706,9.384L36.3,151.82a23.783,23.783,0,0,0-4.263,2.959A89.649,89.649,0,0,1,18.543,141,87.545,87.545,0,0,1,8.358,124.641a85.907,85.907,0,0,1-.835-72.114A87.406,87.406,0,0,1,26.894,25.136a89.8,89.8,0,0,1,28.384-18.4A91.106,91.106,0,0,1,89.826,0c.519,0,1.046,0,1.567.013a91.134,91.134,0,0,1,34.851,7.476,89.6,89.6,0,0,1,28.228,19.272,87.225,87.225,0,0,1,18.763,28.2,85.879,85.879,0,0,1-2.623,71.233,87.591,87.591,0,0,1-10.1,15.684,89.529,89.529,0,0,1-13.155,13.209Z" transform="translate(0.293 0)"/><g transform="translate(24.582 21.729)"><path class="d" d="M44.772,123.362l-30.449,14.83a27.557,27.557,0,0,0-4.887,3.1,109.105,109.105,0,0,0,65.707,21.428A109.245,109.245,0,0,0,140.47,141.6a27.439,27.439,0,0,0-5.368-3.211L102.5,123.833a11.047,11.047,0,0,1-6.874-9.93V102.481a45.051,45.051,0,0,0,3.085-3.542A64.424,64.424,0,0,0,108.843,80.7c4.182-1.152,7.263-4.6,7.263-8.7V59.811a8.716,8.716,0,0,0-3.412-6.756V35.429S116.748,8,75.148,8,37.6,35.429,37.6,35.429V53.054a8.7,8.7,0,0,0-3.412,6.756V72a8.959,8.959,0,0,0,4.721,7.671,58.515,58.515,0,0,0,12.346,22.807v11.14A11,11,0,0,1,44.772,123.362Z" transform="translate(-9.437 -8.001)"/></g></g></g><g transform="translate(130.453 146.431)"><ellipse class="e" cx="16.761" cy="16.342" rx="16.761" ry="16.342" transform="translate(-0.453 -0.431)"/><g transform="translate(6.548 7.569)"><path class="f" d="M19.176,16.188A2.988,2.988,0,1,1,16.188,13.2,2.988,2.988,0,0,1,19.176,16.188Z" transform="translate(-6.851 -6.851)"/><path class="f" d="M9.536,3,7.827,4.867H4.867A1.873,1.873,0,0,0,3,6.735v11.2a1.873,1.873,0,0,0,1.867,1.867H19.806a1.873,1.873,0,0,0,1.867-1.867V6.735a1.873,1.873,0,0,0-1.867-1.867h-2.96L15.138,3Zm2.8,14.005a4.668,4.668,0,1,1,4.668-4.668A4.67,4.67,0,0,1,12.337,17.005Z" transform="translate(-3 -3)"/></g></g></svg>