<svg xmlns="http://www.w3.org/2000/svg" width="21" height="17.767" viewBox="0 0 21 17.767">
  <path id="telegram" d="M20.676.486A1.363,1.363,0,0,0,19.594,0a2.122,2.122,0,0,0-.755.15L1.062,6.936c-.943.36-1.07.9-1.062,1.19s.166.822,1.128,1.128l.017.005,3.687,1.055,1.994,5.7a1.721,1.721,0,0,0,1.593,1.26,1.885,1.885,0,0,0,1.275-.543l2.281-2.1L15.283,17.3h0l.031.025.009.007a1.91,1.91,0,0,0,1.161.436h0a1.63,1.63,0,0,0,1.554-1.444L20.952,1.941A1.718,1.718,0,0,0,20.676.486ZM6.066,10.115,13.18,6.48l-4.43,4.707a.614.614,0,0,0-.149.274l-.854,3.46Zm2.795,5.715c-.029.027-.059.051-.089.074l.792-3.209,1.441,1.161ZM19.746,1.7,16.833,16.079c-.028.138-.118.458-.348.458a.717.717,0,0,1-.4-.175l-3.748-3.018h0l-2.23-1.8L16.508,4.74a.615.615,0,0,0-.728-.969L5.244,9.153,1.507,8.084,19.278,1.3a.9.9,0,0,1,.316-.069c.038,0,.1,0,.129.035a.587.587,0,0,1,.023.431Zm0,0" transform="translate(0)" fill="#22272a"/>
</svg>
