<svg xmlns="http://www.w3.org/2000/svg" width="7.378" height="7.378" viewBox="0 0 7.378 7.378"><defs><style>.a{fill:#871178;}</style></defs><path class="a" d="M7.235,5.867l-.818-.545L5.69,4.837a.322.322,0,0,0-.432.07l-.45.578A.32.32,0,0,1,4.4,5.57,5.238,5.238,0,0,1,2.936,4.443,5.276,5.276,0,0,1,1.808,2.98a.32.32,0,0,1,.085-.409l.578-.45a.322.322,0,0,0,.07-.432l-.47-.7-.56-.84a.322.322,0,0,0-.434-.1L.432.433A.789.789,0,0,0,.074.9C-.1,1.542-.139,2.963,2.139,5.24S5.837,7.481,6.481,7.3a.789.789,0,0,0,.464-.358L7.332,6.3A.322.322,0,0,0,7.235,5.867Z" transform="translate(0 0)"/><path class="a" d="M282.609,62.046a2.165,2.165,0,0,1,2.162,2.162.127.127,0,1,0,.254,0,2.419,2.419,0,0,0-2.417-2.417.127.127,0,1,0,0,.254Z" transform="translate(-278.412 -60.902)"/><path class="a" d="M282.608,115.01a1.4,1.4,0,0,1,1.4,1.4.127.127,0,1,0,.254,0,1.655,1.655,0,0,0-1.654-1.654.127.127,0,1,0,0,.254Z" transform="translate(-278.411 -113.102)"/><path class="a" d="M282.609,167.977a.637.637,0,0,1,.636.636.127.127,0,1,0,.254,0,.891.891,0,0,0-.89-.89.127.127,0,1,0,0,.254Z" transform="translate(-278.412 -165.306)"/></svg>