<svg xmlns="http://www.w3.org/2000/svg" width="50.969" height="48.753" viewBox="0 0 50.969 48.753"><defs><style>.a{fill:#fff;}</style></defs><g transform="translate(0 -0.333)"><path class="a" d="M33.794,222.324H1.662a1.662,1.662,0,1,1,0-3.324H33.794a1.662,1.662,0,1,1,0,3.324Zm0,0" transform="translate(0 -195.953)"/><path class="a" d="M225.666,154.685a1.663,1.663,0,0,1-1.175-2.839l7.69-7.689-7.69-7.69a1.663,1.663,0,0,1,2.351-2.351l8.864,8.864a1.662,1.662,0,0,1,0,2.351l-8.864,8.864A1.65,1.65,0,0,1,225.666,154.685Zm0,0" transform="translate(-200.735 -119.45)"/><path class="a" d="M59.276,49.086A24.25,24.25,0,0,1,36.588,33.627a1.662,1.662,0,1,1,3.094-1.214,21.052,21.052,0,1,0,0-15.406,1.662,1.662,0,1,1-3.094-1.214A24.377,24.377,0,1,1,59.276,49.086Zm0,0" transform="translate(-32.683 0)"/></g></svg>