<svg xmlns="http://www.w3.org/2000/svg" width="28.125" height="32" viewBox="0 0 28.125 32"><defs><style>.a{fill:#707070;}</style></defs><g transform="translate(-31)"><g transform="translate(31)"><path class="a" d="M50.4,21.143c3.405-5.343,2.977-4.677,3.075-4.816a10.236,10.236,0,0,0,1.9-5.952A10.313,10.313,0,1,0,36.7,16.4l3.021,4.74c-3.23.5-8.72,1.975-8.72,5.232,0,1.187.775,2.879,4.466,4.2A29.591,29.591,0,0,0,45.063,32c6.752,0,14.063-1.9,14.063-5.625C59.125,23.118,53.641,21.64,50.4,21.143ZM38.266,15.372q-.015-.024-.032-.047a8.437,8.437,0,1,1,13.726-.095c-.09.119.381-.613-6.9,10.807Zm6.8,14.753c-7.375,0-12.187-2.168-12.187-3.75,0-1.064,2.473-2.812,7.953-3.494l3.444,5.4a.937.937,0,0,0,1.581,0l3.444-5.4c5.48.682,7.953,2.43,7.953,3.494C57.25,27.944,52.48,30.125,45.063,30.125Z" transform="translate(-31)"/></g><g transform="translate(40.375 5.688)"><path class="a" d="M185.687,91a4.688,4.688,0,1,0,4.688,4.688A4.693,4.693,0,0,0,185.687,91Zm0,7.5a2.813,2.813,0,1,1,2.813-2.812A2.816,2.816,0,0,1,185.687,98.5Z" transform="translate(-181 -91)"/></g></g></svg>