<svg xmlns="http://www.w3.org/2000/svg" width="17.259" height="19.637" viewBox="0 0 17.259 19.637"><defs><style>.a{fill:#707070;}</style></defs><g transform="translate(-30.999)"><path class="a" d="M45.573,10.082V8.246a5.955,5.955,0,0,0-4.219-5.689V1.726a1.726,1.726,0,0,0-3.452,0v.831a5.955,5.955,0,0,0-4.219,5.689v1.836a9.033,9.033,0,0,1-2.525,6.281.575.575,0,0,0,.415.973H36.81a2.877,2.877,0,0,0,5.637,0h5.236a.575.575,0,0,0,.415-.973A9.033,9.033,0,0,1,45.573,10.082Zm-6.52-8.356a.575.575,0,1,1,1.151,0v.6c-.189-.018-.381-.028-.575-.028s-.386.01-.575.028Zm.575,16.76A1.729,1.729,0,0,1,38,17.336h3.254A1.729,1.729,0,0,1,39.628,18.486Zm-6.814-2.3a10.172,10.172,0,0,0,2.02-6.1V8.246a4.794,4.794,0,1,1,9.588,0v1.836a10.171,10.171,0,0,0,2.02,6.1Z" transform="translate(0)"/><path class="a" d="M391.851,57.777a.575.575,0,0,0,1.151,0,8.573,8.573,0,0,0-2.527-6.1.575.575,0,1,0-.814.814A7.43,7.43,0,0,1,391.851,57.777Z" transform="translate(-344.744 -49.531)"/><path class="a" d="M31.575,58.353a.575.575,0,0,0,.575-.575,7.43,7.43,0,0,1,2.19-5.288.575.575,0,1,0-.814-.814A8.573,8.573,0,0,0,31,57.778.575.575,0,0,0,31.575,58.353Z" transform="translate(-0.001 -49.532)"/><path class="a" d="M45.573,10.082V8.246a5.955,5.955,0,0,0-4.219-5.689V1.726a1.726,1.726,0,0,0-3.452,0v.831a5.955,5.955,0,0,0-4.219,5.689v1.836a9.033,9.033,0,0,1-2.525,6.281.575.575,0,0,0,.415.973H36.81a2.877,2.877,0,0,0,5.637,0h5.236a.575.575,0,0,0,.415-.973A9.033,9.033,0,0,1,45.573,10.082Zm-6.52-8.356a.575.575,0,1,1,1.151,0v.6c-.189-.018-.381-.028-.575-.028s-.386.01-.575.028Zm.575,16.76A1.729,1.729,0,0,1,38,17.336h3.254A1.729,1.729,0,0,1,39.628,18.486Zm-6.814-2.3a10.172,10.172,0,0,0,2.02-6.1V8.246a4.794,4.794,0,1,1,9.588,0v1.836a10.171,10.171,0,0,0,2.02,6.1Z"/></g></svg>