<svg xmlns="http://www.w3.org/2000/svg" width="50.324" height="49.734" viewBox="0 0 50.324 49.734"><defs><style>.a{fill:#fff;}</style></defs><g transform="translate(-11 -11)"><path class="a" d="M59.228,33.8a2.079,2.079,0,0,0-2.1,2.071A20.973,20.973,0,1,1,36.162,15.141,20.955,20.955,0,0,1,52.3,22.621h-7.24a2.071,2.071,0,1,0,0,4.141h11.77a2.079,2.079,0,0,0,2.1-2.071V13.071a2.1,2.1,0,0,0-4.19,0v5.988A25.242,25.242,0,0,0,11,35.867a25.164,25.164,0,0,0,50.324,0A2.079,2.079,0,0,0,59.228,33.8Z"/></g></svg>